G75*
%MOIN*%
%OFA0B0*%
%FSLAX25Y25*%
%IPPOS*%
%LPD*%
%AMOC8*
5,1,8,0,0,1.08239X$1,22.5*
%
%ADD10R,0.01100X0.05800*%
%ADD11R,0.05800X0.01100*%
%ADD12R,0.04331X0.03937*%
%ADD13R,0.03937X0.04331*%
%ADD14R,0.07087X0.03937*%
%ADD15R,0.02165X0.04508*%
%ADD16R,0.04508X0.02165*%
%ADD17R,0.02756X0.01378*%
%ADD18R,0.05000X0.07000*%
%ADD19R,0.02559X0.06890*%
%ADD20R,0.12598X0.12598*%
%ADD21C,0.32008*%
%ADD22R,0.00984X0.02657*%
%ADD23R,0.02165X0.00984*%
%ADD24C,0.00100*%
%ADD25R,0.04724X0.01378*%
%ADD26R,0.06102X0.00984*%
%ADD27R,0.03780X0.01811*%
%ADD28R,0.03780X0.01417*%
%ADD29R,0.01969X0.02559*%
%ADD30R,0.04528X0.02362*%
%ADD31R,0.04528X0.01772*%
%ADD32R,0.08000X0.04500*%
%ADD33R,0.07874X0.03150*%
%ADD34R,0.02402X0.05709*%
D10*
X0161138Y0104862D03*
X0163038Y0104862D03*
X0165038Y0104862D03*
X0167038Y0104862D03*
X0168938Y0104862D03*
X0170938Y0104862D03*
X0172937Y0104862D03*
X0174937Y0104862D03*
X0176837Y0104862D03*
X0178837Y0104862D03*
X0180837Y0104862D03*
X0182737Y0104862D03*
X0182737Y0138263D03*
X0180837Y0138263D03*
X0178837Y0138263D03*
X0176837Y0138263D03*
X0174937Y0138263D03*
X0172937Y0138263D03*
X0170938Y0138263D03*
X0168938Y0138263D03*
X0167038Y0138263D03*
X0165038Y0138263D03*
X0163038Y0138263D03*
X0161138Y0138263D03*
D11*
X0155238Y0132363D03*
X0155238Y0130462D03*
X0155238Y0128462D03*
X0155238Y0126462D03*
X0155238Y0124562D03*
X0155238Y0122562D03*
X0155238Y0120562D03*
X0155238Y0118562D03*
X0155238Y0116662D03*
X0155238Y0114662D03*
X0155238Y0112662D03*
X0155238Y0110762D03*
X0188637Y0110762D03*
X0188637Y0112662D03*
X0188637Y0114662D03*
X0188637Y0116662D03*
X0188637Y0118562D03*
X0188637Y0120562D03*
X0188637Y0122562D03*
X0188637Y0124562D03*
X0188637Y0126462D03*
X0188637Y0128462D03*
X0188637Y0130462D03*
X0188637Y0132363D03*
D12*
X0152971Y0104750D03*
X0146279Y0104750D03*
X0170154Y0093625D03*
X0176846Y0093625D03*
X0170063Y0083346D03*
X0170063Y0076654D03*
X0235375Y0076091D03*
X0241187Y0075779D03*
X0241187Y0082471D03*
X0235375Y0082784D03*
X0234779Y0092812D03*
X0241471Y0092812D03*
X0251625Y0080096D03*
X0251625Y0073404D03*
X0251437Y0067909D03*
X0251437Y0061216D03*
X0151846Y0170938D03*
X0145154Y0170938D03*
X0145216Y0176375D03*
X0151909Y0176375D03*
X0162188Y0217216D03*
X0168375Y0217279D03*
X0168375Y0223971D03*
X0162188Y0223909D03*
X0245750Y0221909D03*
X0245750Y0215216D03*
D13*
X0098562Y0060154D03*
X0104937Y0060216D03*
X0111687Y0060466D03*
X0117187Y0060466D03*
X0117187Y0067159D03*
X0111687Y0067159D03*
X0104937Y0066909D03*
X0098562Y0066846D03*
X0147938Y0083966D03*
X0152938Y0084029D03*
X0152938Y0090721D03*
X0147938Y0090659D03*
X0160188Y0089654D03*
X0164938Y0090034D03*
X0164938Y0083341D03*
X0160188Y0096346D03*
X0134563Y0120404D03*
X0134563Y0127096D03*
X0234841Y0162813D03*
X0241534Y0162813D03*
X0241784Y0169688D03*
X0235091Y0169688D03*
X0168563Y0204716D03*
X0162000Y0204716D03*
X0162000Y0211409D03*
X0168563Y0211409D03*
X0234654Y0087812D03*
X0241346Y0087812D03*
X0246687Y0082284D03*
X0256750Y0080034D03*
X0262125Y0079971D03*
X0262125Y0073279D03*
X0256750Y0073341D03*
X0246687Y0075591D03*
X0256937Y0067971D03*
X0262062Y0067971D03*
X0262062Y0061279D03*
X0256937Y0061279D03*
D14*
X0139750Y0094605D03*
X0139750Y0104645D03*
D15*
X0163376Y0159367D03*
X0166526Y0159367D03*
X0169675Y0159367D03*
X0172825Y0159367D03*
X0175974Y0159367D03*
X0179124Y0159367D03*
X0179124Y0168008D03*
X0175974Y0168008D03*
X0172825Y0168008D03*
X0169675Y0168008D03*
X0166526Y0168008D03*
X0163376Y0168008D03*
D16*
X0162992Y0163688D03*
X0179508Y0163688D03*
D17*
X0234568Y0067276D03*
X0234568Y0064717D03*
X0234568Y0062158D03*
X0234568Y0059599D03*
X0246182Y0059599D03*
X0246182Y0062158D03*
X0246182Y0064717D03*
X0246182Y0067276D03*
D18*
X0240375Y0063437D03*
D19*
X0153438Y0139039D03*
X0148438Y0139039D03*
X0143438Y0139039D03*
X0138438Y0139039D03*
X0138438Y0161086D03*
X0143438Y0161086D03*
X0148438Y0161086D03*
X0153438Y0161086D03*
D20*
X0176080Y0181750D03*
X0236670Y0181750D03*
D21*
X0206375Y0181750D03*
D22*
X0205406Y0156970D03*
X0203437Y0156970D03*
X0201469Y0156970D03*
X0199500Y0156970D03*
X0197532Y0156970D03*
X0207375Y0156970D03*
X0209343Y0156970D03*
X0209343Y0147030D03*
X0207375Y0147030D03*
X0205406Y0147030D03*
X0203437Y0147030D03*
X0201469Y0147030D03*
X0199500Y0147030D03*
X0197532Y0147030D03*
D23*
X0195367Y0150031D03*
X0195367Y0152000D03*
X0195367Y0153969D03*
X0211508Y0153969D03*
X0211508Y0152000D03*
X0211508Y0150031D03*
D24*
X0219400Y0149656D02*
X0219400Y0148751D01*
X0222549Y0148751D01*
X0222549Y0149656D01*
X0219400Y0149656D01*
X0219400Y0149595D02*
X0222549Y0149595D01*
X0222549Y0149497D02*
X0219400Y0149497D01*
X0219400Y0149398D02*
X0222549Y0149398D01*
X0222549Y0149300D02*
X0219400Y0149300D01*
X0219400Y0149201D02*
X0222549Y0149201D01*
X0222549Y0149103D02*
X0219400Y0149103D01*
X0219400Y0149004D02*
X0222549Y0149004D01*
X0222549Y0148906D02*
X0219400Y0148906D01*
X0219400Y0148807D02*
X0222549Y0148807D01*
X0222549Y0147687D02*
X0219400Y0147687D01*
X0219400Y0146782D01*
X0222549Y0146782D01*
X0222549Y0147687D01*
X0222549Y0147625D02*
X0219400Y0147625D01*
X0219400Y0147527D02*
X0222549Y0147527D01*
X0222549Y0147428D02*
X0219400Y0147428D01*
X0219400Y0147330D02*
X0222549Y0147330D01*
X0222549Y0147231D02*
X0219400Y0147231D01*
X0219400Y0147132D02*
X0222549Y0147132D01*
X0222549Y0147034D02*
X0219400Y0147034D01*
X0219400Y0146935D02*
X0222549Y0146935D01*
X0222549Y0146837D02*
X0219400Y0146837D01*
X0219400Y0145718D02*
X0219400Y0144813D01*
X0222549Y0144813D01*
X0222549Y0145718D01*
X0219400Y0145718D01*
X0219400Y0145655D02*
X0222549Y0145655D01*
X0222549Y0145556D02*
X0219400Y0145556D01*
X0219400Y0145458D02*
X0222549Y0145458D01*
X0222549Y0145359D02*
X0219400Y0145359D01*
X0219400Y0145261D02*
X0222549Y0145261D01*
X0222549Y0145162D02*
X0219400Y0145162D01*
X0219400Y0145064D02*
X0222549Y0145064D01*
X0222549Y0144965D02*
X0219400Y0144965D01*
X0219400Y0144867D02*
X0222549Y0144867D01*
X0222549Y0143749D02*
X0219400Y0143749D01*
X0219400Y0142844D01*
X0222549Y0142844D01*
X0222549Y0143749D01*
X0222549Y0143685D02*
X0219400Y0143685D01*
X0219400Y0143586D02*
X0222549Y0143586D01*
X0222549Y0143488D02*
X0219400Y0143488D01*
X0219400Y0143389D02*
X0222549Y0143389D01*
X0222549Y0143291D02*
X0219400Y0143291D01*
X0219400Y0143192D02*
X0222549Y0143192D01*
X0222549Y0143094D02*
X0219400Y0143094D01*
X0219400Y0142995D02*
X0222549Y0142995D01*
X0222549Y0142897D02*
X0219400Y0142897D01*
X0219400Y0141780D02*
X0219400Y0140875D01*
X0222549Y0140875D01*
X0222549Y0141780D01*
X0219400Y0141780D01*
X0219400Y0141714D02*
X0222549Y0141714D01*
X0222549Y0141616D02*
X0219400Y0141616D01*
X0219400Y0141517D02*
X0222549Y0141517D01*
X0222549Y0141419D02*
X0219400Y0141419D01*
X0219400Y0141320D02*
X0222549Y0141320D01*
X0222549Y0141222D02*
X0219400Y0141222D01*
X0219400Y0141123D02*
X0222549Y0141123D01*
X0222549Y0141025D02*
X0219400Y0141025D01*
X0219400Y0140926D02*
X0222549Y0140926D01*
X0223376Y0140049D02*
X0223376Y0136900D01*
X0224281Y0136900D01*
X0224281Y0140049D01*
X0223376Y0140049D01*
X0223376Y0140040D02*
X0224281Y0140040D01*
X0224281Y0139941D02*
X0223376Y0139941D01*
X0223376Y0139843D02*
X0224281Y0139843D01*
X0224281Y0139744D02*
X0223376Y0139744D01*
X0223376Y0139646D02*
X0224281Y0139646D01*
X0224281Y0139547D02*
X0223376Y0139547D01*
X0223376Y0139449D02*
X0224281Y0139449D01*
X0224281Y0139350D02*
X0223376Y0139350D01*
X0223376Y0139252D02*
X0224281Y0139252D01*
X0224281Y0139153D02*
X0223376Y0139153D01*
X0223376Y0139055D02*
X0224281Y0139055D01*
X0224281Y0138956D02*
X0223376Y0138956D01*
X0223376Y0138858D02*
X0224281Y0138858D01*
X0224281Y0138759D02*
X0223376Y0138759D01*
X0223376Y0138661D02*
X0224281Y0138661D01*
X0224281Y0138562D02*
X0223376Y0138562D01*
X0223376Y0138463D02*
X0224281Y0138463D01*
X0224281Y0138365D02*
X0223376Y0138365D01*
X0223376Y0138266D02*
X0224281Y0138266D01*
X0224281Y0138168D02*
X0223376Y0138168D01*
X0223376Y0138069D02*
X0224281Y0138069D01*
X0224281Y0137971D02*
X0223376Y0137971D01*
X0223376Y0137872D02*
X0224281Y0137872D01*
X0224281Y0137774D02*
X0223376Y0137774D01*
X0223376Y0137675D02*
X0224281Y0137675D01*
X0224281Y0137577D02*
X0223376Y0137577D01*
X0223376Y0137478D02*
X0224281Y0137478D01*
X0224281Y0137380D02*
X0223376Y0137380D01*
X0223376Y0137281D02*
X0224281Y0137281D01*
X0224281Y0137183D02*
X0223376Y0137183D01*
X0223376Y0137084D02*
X0224281Y0137084D01*
X0224281Y0136986D02*
X0223376Y0136986D01*
X0225344Y0136986D02*
X0226250Y0136986D01*
X0226250Y0136900D02*
X0226250Y0140049D01*
X0225344Y0140049D01*
X0225344Y0136900D01*
X0226250Y0136900D01*
X0226250Y0137084D02*
X0225344Y0137084D01*
X0225344Y0137183D02*
X0226250Y0137183D01*
X0226250Y0137281D02*
X0225344Y0137281D01*
X0225344Y0137380D02*
X0226250Y0137380D01*
X0226250Y0137478D02*
X0225344Y0137478D01*
X0225344Y0137577D02*
X0226250Y0137577D01*
X0226250Y0137675D02*
X0225344Y0137675D01*
X0225344Y0137774D02*
X0226250Y0137774D01*
X0226250Y0137872D02*
X0225344Y0137872D01*
X0225344Y0137971D02*
X0226250Y0137971D01*
X0226250Y0138069D02*
X0225344Y0138069D01*
X0225344Y0138168D02*
X0226250Y0138168D01*
X0226250Y0138266D02*
X0225344Y0138266D01*
X0225344Y0138365D02*
X0226250Y0138365D01*
X0226250Y0138463D02*
X0225344Y0138463D01*
X0225344Y0138562D02*
X0226250Y0138562D01*
X0226250Y0138661D02*
X0225344Y0138661D01*
X0225344Y0138759D02*
X0226250Y0138759D01*
X0226250Y0138858D02*
X0225344Y0138858D01*
X0225344Y0138956D02*
X0226250Y0138956D01*
X0226250Y0139055D02*
X0225344Y0139055D01*
X0225344Y0139153D02*
X0226250Y0139153D01*
X0226250Y0139252D02*
X0225344Y0139252D01*
X0225344Y0139350D02*
X0226250Y0139350D01*
X0226250Y0139449D02*
X0225344Y0139449D01*
X0225344Y0139547D02*
X0226250Y0139547D01*
X0226250Y0139646D02*
X0225344Y0139646D01*
X0225344Y0139744D02*
X0226250Y0139744D01*
X0226250Y0139843D02*
X0225344Y0139843D01*
X0225344Y0139941D02*
X0226250Y0139941D01*
X0226250Y0140040D02*
X0225344Y0140040D01*
X0225256Y0141722D02*
X0225256Y0142200D01*
X0224700Y0142756D01*
X0224222Y0142756D01*
X0224222Y0141722D01*
X0225256Y0141722D01*
X0225256Y0141813D02*
X0224222Y0141813D01*
X0224222Y0141911D02*
X0225256Y0141911D01*
X0225256Y0142010D02*
X0224222Y0142010D01*
X0224222Y0142108D02*
X0225256Y0142108D01*
X0225249Y0142207D02*
X0224222Y0142207D01*
X0224222Y0142305D02*
X0225150Y0142305D01*
X0225052Y0142404D02*
X0224222Y0142404D01*
X0224222Y0142502D02*
X0224953Y0142502D01*
X0224855Y0142601D02*
X0224222Y0142601D01*
X0224222Y0142699D02*
X0224756Y0142699D01*
X0224700Y0143544D02*
X0225256Y0144100D01*
X0225256Y0145300D01*
X0224700Y0145856D01*
X0224222Y0145856D01*
X0224222Y0143544D01*
X0224700Y0143544D01*
X0224742Y0143586D02*
X0224222Y0143586D01*
X0224222Y0143685D02*
X0224840Y0143685D01*
X0224939Y0143783D02*
X0224222Y0143783D01*
X0224222Y0143882D02*
X0225037Y0143882D01*
X0225136Y0143980D02*
X0224222Y0143980D01*
X0224222Y0144079D02*
X0225234Y0144079D01*
X0225256Y0144177D02*
X0224222Y0144177D01*
X0224222Y0144276D02*
X0225256Y0144276D01*
X0225256Y0144374D02*
X0224222Y0144374D01*
X0224222Y0144473D02*
X0225256Y0144473D01*
X0225256Y0144571D02*
X0224222Y0144571D01*
X0224222Y0144670D02*
X0225256Y0144670D01*
X0225256Y0144768D02*
X0224222Y0144768D01*
X0224222Y0144867D02*
X0225256Y0144867D01*
X0225256Y0144965D02*
X0224222Y0144965D01*
X0224222Y0145064D02*
X0225256Y0145064D01*
X0225256Y0145162D02*
X0224222Y0145162D01*
X0224222Y0145261D02*
X0225256Y0145261D01*
X0225197Y0145359D02*
X0224222Y0145359D01*
X0224222Y0145458D02*
X0225098Y0145458D01*
X0225000Y0145556D02*
X0224222Y0145556D01*
X0224222Y0145655D02*
X0224901Y0145655D01*
X0224802Y0145753D02*
X0224222Y0145753D01*
X0224222Y0145852D02*
X0224704Y0145852D01*
X0224700Y0146644D02*
X0225256Y0147200D01*
X0225256Y0148400D01*
X0224700Y0148956D01*
X0224222Y0148956D01*
X0224222Y0146644D01*
X0224700Y0146644D01*
X0224794Y0146738D02*
X0224222Y0146738D01*
X0224222Y0146837D02*
X0224893Y0146837D01*
X0224991Y0146935D02*
X0224222Y0146935D01*
X0224222Y0147034D02*
X0225090Y0147034D01*
X0225188Y0147132D02*
X0224222Y0147132D01*
X0224222Y0147231D02*
X0225256Y0147231D01*
X0225256Y0147330D02*
X0224222Y0147330D01*
X0224222Y0147428D02*
X0225256Y0147428D01*
X0225256Y0147527D02*
X0224222Y0147527D01*
X0224222Y0147625D02*
X0225256Y0147625D01*
X0225256Y0147724D02*
X0224222Y0147724D01*
X0224222Y0147822D02*
X0225256Y0147822D01*
X0225256Y0147921D02*
X0224222Y0147921D01*
X0224222Y0148019D02*
X0225256Y0148019D01*
X0225256Y0148118D02*
X0224222Y0148118D01*
X0224222Y0148216D02*
X0225256Y0148216D01*
X0225256Y0148315D02*
X0224222Y0148315D01*
X0224222Y0148413D02*
X0225243Y0148413D01*
X0225144Y0148512D02*
X0224222Y0148512D01*
X0224222Y0148610D02*
X0225046Y0148610D01*
X0224947Y0148709D02*
X0224222Y0148709D01*
X0224222Y0148807D02*
X0224849Y0148807D01*
X0224750Y0148906D02*
X0224222Y0148906D01*
X0224222Y0149744D02*
X0224222Y0150778D01*
X0225256Y0150778D01*
X0225256Y0150300D01*
X0224700Y0149744D01*
X0224222Y0149744D01*
X0224222Y0149792D02*
X0224748Y0149792D01*
X0224847Y0149891D02*
X0224222Y0149891D01*
X0224222Y0149989D02*
X0224945Y0149989D01*
X0225044Y0150088D02*
X0224222Y0150088D01*
X0224222Y0150186D02*
X0225142Y0150186D01*
X0225241Y0150285D02*
X0224222Y0150285D01*
X0224222Y0150383D02*
X0225256Y0150383D01*
X0225256Y0150482D02*
X0224222Y0150482D01*
X0224222Y0150580D02*
X0225256Y0150580D01*
X0225256Y0150679D02*
X0224222Y0150679D01*
X0224222Y0150777D02*
X0225256Y0150777D01*
X0226044Y0150777D02*
X0228356Y0150777D01*
X0228356Y0150778D02*
X0226044Y0150778D01*
X0226044Y0150300D01*
X0226600Y0149744D01*
X0227800Y0149744D01*
X0228356Y0150300D01*
X0228356Y0150778D01*
X0228356Y0150679D02*
X0226044Y0150679D01*
X0226044Y0150580D02*
X0228356Y0150580D01*
X0228356Y0150482D02*
X0226044Y0150482D01*
X0226044Y0150383D02*
X0228356Y0150383D01*
X0228341Y0150285D02*
X0226059Y0150285D01*
X0226158Y0150186D02*
X0228242Y0150186D01*
X0228144Y0150088D02*
X0226256Y0150088D01*
X0226355Y0149989D02*
X0228045Y0149989D01*
X0227947Y0149891D02*
X0226453Y0149891D01*
X0226552Y0149792D02*
X0227848Y0149792D01*
X0227800Y0148956D02*
X0226600Y0148956D01*
X0226044Y0148400D01*
X0226044Y0147200D01*
X0226600Y0146644D01*
X0227800Y0146644D01*
X0228356Y0147200D01*
X0228356Y0148400D01*
X0227800Y0148956D01*
X0227850Y0148906D02*
X0226550Y0148906D01*
X0226451Y0148807D02*
X0227949Y0148807D01*
X0228047Y0148709D02*
X0226353Y0148709D01*
X0226254Y0148610D02*
X0228146Y0148610D01*
X0228244Y0148512D02*
X0226156Y0148512D01*
X0226057Y0148413D02*
X0228343Y0148413D01*
X0228356Y0148315D02*
X0226044Y0148315D01*
X0226044Y0148216D02*
X0228356Y0148216D01*
X0228356Y0148118D02*
X0226044Y0148118D01*
X0226044Y0148019D02*
X0228356Y0148019D01*
X0228356Y0147921D02*
X0226044Y0147921D01*
X0226044Y0147822D02*
X0228356Y0147822D01*
X0228356Y0147724D02*
X0226044Y0147724D01*
X0226044Y0147625D02*
X0228356Y0147625D01*
X0228356Y0147527D02*
X0226044Y0147527D01*
X0226044Y0147428D02*
X0228356Y0147428D01*
X0228356Y0147330D02*
X0226044Y0147330D01*
X0226044Y0147231D02*
X0228356Y0147231D01*
X0228288Y0147132D02*
X0226112Y0147132D01*
X0226210Y0147034D02*
X0228190Y0147034D01*
X0228091Y0146935D02*
X0226309Y0146935D01*
X0226407Y0146837D02*
X0227993Y0146837D01*
X0227894Y0146738D02*
X0226506Y0146738D01*
X0226600Y0145856D02*
X0226044Y0145300D01*
X0226044Y0144100D01*
X0226600Y0143544D01*
X0227800Y0143544D01*
X0228356Y0144100D01*
X0228356Y0145300D01*
X0227800Y0145856D01*
X0226600Y0145856D01*
X0226596Y0145852D02*
X0227804Y0145852D01*
X0227902Y0145753D02*
X0226498Y0145753D01*
X0226399Y0145655D02*
X0228001Y0145655D01*
X0228100Y0145556D02*
X0226300Y0145556D01*
X0226202Y0145458D02*
X0228198Y0145458D01*
X0228297Y0145359D02*
X0226103Y0145359D01*
X0226044Y0145261D02*
X0228356Y0145261D01*
X0228356Y0145162D02*
X0226044Y0145162D01*
X0226044Y0145064D02*
X0228356Y0145064D01*
X0228356Y0144965D02*
X0226044Y0144965D01*
X0226044Y0144867D02*
X0228356Y0144867D01*
X0228356Y0144768D02*
X0226044Y0144768D01*
X0226044Y0144670D02*
X0228356Y0144670D01*
X0228356Y0144571D02*
X0226044Y0144571D01*
X0226044Y0144473D02*
X0228356Y0144473D01*
X0228356Y0144374D02*
X0226044Y0144374D01*
X0226044Y0144276D02*
X0228356Y0144276D01*
X0228356Y0144177D02*
X0226044Y0144177D01*
X0226066Y0144079D02*
X0228334Y0144079D01*
X0228236Y0143980D02*
X0226164Y0143980D01*
X0226263Y0143882D02*
X0228137Y0143882D01*
X0228039Y0143783D02*
X0226361Y0143783D01*
X0226460Y0143685D02*
X0227940Y0143685D01*
X0227842Y0143586D02*
X0226558Y0143586D01*
X0226600Y0142756D02*
X0226044Y0142200D01*
X0226044Y0141722D01*
X0228356Y0141722D01*
X0228356Y0142200D01*
X0227800Y0142756D01*
X0226600Y0142756D01*
X0226544Y0142699D02*
X0227856Y0142699D01*
X0227955Y0142601D02*
X0226445Y0142601D01*
X0226347Y0142502D02*
X0228053Y0142502D01*
X0228152Y0142404D02*
X0226248Y0142404D01*
X0226150Y0142305D02*
X0228250Y0142305D01*
X0228349Y0142207D02*
X0226051Y0142207D01*
X0226044Y0142108D02*
X0228356Y0142108D01*
X0228356Y0142010D02*
X0226044Y0142010D01*
X0226044Y0141911D02*
X0228356Y0141911D01*
X0228356Y0141813D02*
X0226044Y0141813D01*
X0227313Y0140049D02*
X0227313Y0136900D01*
X0228219Y0136900D01*
X0228219Y0140049D01*
X0227313Y0140049D01*
X0227313Y0140040D02*
X0228219Y0140040D01*
X0228219Y0139941D02*
X0227313Y0139941D01*
X0227313Y0139843D02*
X0228219Y0139843D01*
X0228219Y0139744D02*
X0227313Y0139744D01*
X0227313Y0139646D02*
X0228219Y0139646D01*
X0228219Y0139547D02*
X0227313Y0139547D01*
X0227313Y0139449D02*
X0228219Y0139449D01*
X0228219Y0139350D02*
X0227313Y0139350D01*
X0227313Y0139252D02*
X0228219Y0139252D01*
X0228219Y0139153D02*
X0227313Y0139153D01*
X0227313Y0139055D02*
X0228219Y0139055D01*
X0228219Y0138956D02*
X0227313Y0138956D01*
X0227313Y0138858D02*
X0228219Y0138858D01*
X0228219Y0138759D02*
X0227313Y0138759D01*
X0227313Y0138661D02*
X0228219Y0138661D01*
X0228219Y0138562D02*
X0227313Y0138562D01*
X0227313Y0138463D02*
X0228219Y0138463D01*
X0228219Y0138365D02*
X0227313Y0138365D01*
X0227313Y0138266D02*
X0228219Y0138266D01*
X0228219Y0138168D02*
X0227313Y0138168D01*
X0227313Y0138069D02*
X0228219Y0138069D01*
X0228219Y0137971D02*
X0227313Y0137971D01*
X0227313Y0137872D02*
X0228219Y0137872D01*
X0228219Y0137774D02*
X0227313Y0137774D01*
X0227313Y0137675D02*
X0228219Y0137675D01*
X0228219Y0137577D02*
X0227313Y0137577D01*
X0227313Y0137478D02*
X0228219Y0137478D01*
X0228219Y0137380D02*
X0227313Y0137380D01*
X0227313Y0137281D02*
X0228219Y0137281D01*
X0228219Y0137183D02*
X0227313Y0137183D01*
X0227313Y0137084D02*
X0228219Y0137084D01*
X0228219Y0136986D02*
X0227313Y0136986D01*
X0229281Y0136986D02*
X0230187Y0136986D01*
X0230187Y0136900D02*
X0230187Y0140049D01*
X0229281Y0140049D01*
X0229281Y0136900D01*
X0230187Y0136900D01*
X0230187Y0137084D02*
X0229281Y0137084D01*
X0229281Y0137183D02*
X0230187Y0137183D01*
X0230187Y0137281D02*
X0229281Y0137281D01*
X0229281Y0137380D02*
X0230187Y0137380D01*
X0230187Y0137478D02*
X0229281Y0137478D01*
X0229281Y0137577D02*
X0230187Y0137577D01*
X0230187Y0137675D02*
X0229281Y0137675D01*
X0229281Y0137774D02*
X0230187Y0137774D01*
X0230187Y0137872D02*
X0229281Y0137872D01*
X0229281Y0137971D02*
X0230187Y0137971D01*
X0230187Y0138069D02*
X0229281Y0138069D01*
X0229281Y0138168D02*
X0230187Y0138168D01*
X0230187Y0138266D02*
X0229281Y0138266D01*
X0229281Y0138365D02*
X0230187Y0138365D01*
X0230187Y0138463D02*
X0229281Y0138463D01*
X0229281Y0138562D02*
X0230187Y0138562D01*
X0230187Y0138661D02*
X0229281Y0138661D01*
X0229281Y0138759D02*
X0230187Y0138759D01*
X0230187Y0138858D02*
X0229281Y0138858D01*
X0229281Y0138956D02*
X0230187Y0138956D01*
X0230187Y0139055D02*
X0229281Y0139055D01*
X0229281Y0139153D02*
X0230187Y0139153D01*
X0230187Y0139252D02*
X0229281Y0139252D01*
X0229281Y0139350D02*
X0230187Y0139350D01*
X0230187Y0139449D02*
X0229281Y0139449D01*
X0229281Y0139547D02*
X0230187Y0139547D01*
X0230187Y0139646D02*
X0229281Y0139646D01*
X0229281Y0139744D02*
X0230187Y0139744D01*
X0230187Y0139843D02*
X0229281Y0139843D01*
X0229281Y0139941D02*
X0230187Y0139941D01*
X0230187Y0140040D02*
X0229281Y0140040D01*
X0229144Y0141722D02*
X0229144Y0142200D01*
X0229700Y0142756D01*
X0230900Y0142756D01*
X0231456Y0142200D01*
X0231456Y0141722D01*
X0229144Y0141722D01*
X0229144Y0141813D02*
X0231456Y0141813D01*
X0231456Y0141911D02*
X0229144Y0141911D01*
X0229144Y0142010D02*
X0231456Y0142010D01*
X0231456Y0142108D02*
X0229144Y0142108D01*
X0229151Y0142207D02*
X0231449Y0142207D01*
X0231350Y0142305D02*
X0229250Y0142305D01*
X0229348Y0142404D02*
X0231252Y0142404D01*
X0231153Y0142502D02*
X0229447Y0142502D01*
X0229545Y0142601D02*
X0231055Y0142601D01*
X0230956Y0142699D02*
X0229644Y0142699D01*
X0229700Y0143544D02*
X0230900Y0143544D01*
X0231456Y0144100D01*
X0231456Y0145300D01*
X0230900Y0145856D01*
X0229700Y0145856D01*
X0229144Y0145300D01*
X0229144Y0144100D01*
X0229700Y0143544D01*
X0229658Y0143586D02*
X0230942Y0143586D01*
X0231040Y0143685D02*
X0229560Y0143685D01*
X0229461Y0143783D02*
X0231139Y0143783D01*
X0231237Y0143882D02*
X0229363Y0143882D01*
X0229264Y0143980D02*
X0231336Y0143980D01*
X0231434Y0144079D02*
X0229166Y0144079D01*
X0229144Y0144177D02*
X0231456Y0144177D01*
X0231456Y0144276D02*
X0229144Y0144276D01*
X0229144Y0144374D02*
X0231456Y0144374D01*
X0231456Y0144473D02*
X0229144Y0144473D01*
X0229144Y0144571D02*
X0231456Y0144571D01*
X0231456Y0144670D02*
X0229144Y0144670D01*
X0229144Y0144768D02*
X0231456Y0144768D01*
X0231456Y0144867D02*
X0229144Y0144867D01*
X0229144Y0144965D02*
X0231456Y0144965D01*
X0231456Y0145064D02*
X0229144Y0145064D01*
X0229144Y0145162D02*
X0231456Y0145162D01*
X0231456Y0145261D02*
X0229144Y0145261D01*
X0229203Y0145359D02*
X0231397Y0145359D01*
X0231298Y0145458D02*
X0229302Y0145458D01*
X0229400Y0145556D02*
X0231200Y0145556D01*
X0231101Y0145655D02*
X0229499Y0145655D01*
X0229598Y0145753D02*
X0231002Y0145753D01*
X0230904Y0145852D02*
X0229696Y0145852D01*
X0229700Y0146644D02*
X0230900Y0146644D01*
X0231456Y0147200D01*
X0231456Y0148400D01*
X0230900Y0148956D01*
X0229700Y0148956D01*
X0229144Y0148400D01*
X0229144Y0147200D01*
X0229700Y0146644D01*
X0229606Y0146738D02*
X0230994Y0146738D01*
X0231093Y0146837D02*
X0229507Y0146837D01*
X0229409Y0146935D02*
X0231191Y0146935D01*
X0231290Y0147034D02*
X0229310Y0147034D01*
X0229212Y0147132D02*
X0231388Y0147132D01*
X0231456Y0147231D02*
X0229144Y0147231D01*
X0229144Y0147330D02*
X0231456Y0147330D01*
X0231456Y0147428D02*
X0229144Y0147428D01*
X0229144Y0147527D02*
X0231456Y0147527D01*
X0231456Y0147625D02*
X0229144Y0147625D01*
X0229144Y0147724D02*
X0231456Y0147724D01*
X0231456Y0147822D02*
X0229144Y0147822D01*
X0229144Y0147921D02*
X0231456Y0147921D01*
X0231456Y0148019D02*
X0229144Y0148019D01*
X0229144Y0148118D02*
X0231456Y0148118D01*
X0231456Y0148216D02*
X0229144Y0148216D01*
X0229144Y0148315D02*
X0231456Y0148315D01*
X0231443Y0148413D02*
X0229157Y0148413D01*
X0229256Y0148512D02*
X0231344Y0148512D01*
X0231246Y0148610D02*
X0229354Y0148610D01*
X0229453Y0148709D02*
X0231147Y0148709D01*
X0231049Y0148807D02*
X0229551Y0148807D01*
X0229650Y0148906D02*
X0230950Y0148906D01*
X0230900Y0149744D02*
X0231456Y0150300D01*
X0231456Y0150778D01*
X0229144Y0150778D01*
X0229144Y0150300D01*
X0229700Y0149744D01*
X0230900Y0149744D01*
X0230948Y0149792D02*
X0229652Y0149792D01*
X0229553Y0149891D02*
X0231047Y0149891D01*
X0231145Y0149989D02*
X0229455Y0149989D01*
X0229356Y0150088D02*
X0231244Y0150088D01*
X0231342Y0150186D02*
X0229258Y0150186D01*
X0229159Y0150285D02*
X0231441Y0150285D01*
X0231456Y0150383D02*
X0229144Y0150383D01*
X0229144Y0150482D02*
X0231456Y0150482D01*
X0231456Y0150580D02*
X0229144Y0150580D01*
X0229144Y0150679D02*
X0231456Y0150679D01*
X0231456Y0150777D02*
X0229144Y0150777D01*
X0229281Y0152451D02*
X0229281Y0155600D01*
X0230187Y0155600D01*
X0230187Y0152451D01*
X0229281Y0152451D01*
X0229281Y0152452D02*
X0230187Y0152452D01*
X0230187Y0152551D02*
X0229281Y0152551D01*
X0229281Y0152649D02*
X0230187Y0152649D01*
X0230187Y0152748D02*
X0229281Y0152748D01*
X0229281Y0152846D02*
X0230187Y0152846D01*
X0230187Y0152945D02*
X0229281Y0152945D01*
X0229281Y0153043D02*
X0230187Y0153043D01*
X0230187Y0153142D02*
X0229281Y0153142D01*
X0229281Y0153240D02*
X0230187Y0153240D01*
X0230187Y0153339D02*
X0229281Y0153339D01*
X0229281Y0153437D02*
X0230187Y0153437D01*
X0230187Y0153536D02*
X0229281Y0153536D01*
X0229281Y0153634D02*
X0230187Y0153634D01*
X0230187Y0153733D02*
X0229281Y0153733D01*
X0229281Y0153831D02*
X0230187Y0153831D01*
X0230187Y0153930D02*
X0229281Y0153930D01*
X0229281Y0154028D02*
X0230187Y0154028D01*
X0230187Y0154127D02*
X0229281Y0154127D01*
X0229281Y0154225D02*
X0230187Y0154225D01*
X0230187Y0154324D02*
X0229281Y0154324D01*
X0229281Y0154422D02*
X0230187Y0154422D01*
X0230187Y0154521D02*
X0229281Y0154521D01*
X0229281Y0154619D02*
X0230187Y0154619D01*
X0230187Y0154718D02*
X0229281Y0154718D01*
X0229281Y0154816D02*
X0230187Y0154816D01*
X0230187Y0154915D02*
X0229281Y0154915D01*
X0229281Y0155013D02*
X0230187Y0155013D01*
X0230187Y0155112D02*
X0229281Y0155112D01*
X0229281Y0155210D02*
X0230187Y0155210D01*
X0230187Y0155309D02*
X0229281Y0155309D01*
X0229281Y0155407D02*
X0230187Y0155407D01*
X0230187Y0155506D02*
X0229281Y0155506D01*
X0228219Y0155506D02*
X0227313Y0155506D01*
X0227313Y0155600D02*
X0227313Y0152451D01*
X0228219Y0152451D01*
X0228219Y0155600D01*
X0227313Y0155600D01*
X0227313Y0155407D02*
X0228219Y0155407D01*
X0228219Y0155309D02*
X0227313Y0155309D01*
X0227313Y0155210D02*
X0228219Y0155210D01*
X0228219Y0155112D02*
X0227313Y0155112D01*
X0227313Y0155013D02*
X0228219Y0155013D01*
X0228219Y0154915D02*
X0227313Y0154915D01*
X0227313Y0154816D02*
X0228219Y0154816D01*
X0228219Y0154718D02*
X0227313Y0154718D01*
X0227313Y0154619D02*
X0228219Y0154619D01*
X0228219Y0154521D02*
X0227313Y0154521D01*
X0227313Y0154422D02*
X0228219Y0154422D01*
X0228219Y0154324D02*
X0227313Y0154324D01*
X0227313Y0154225D02*
X0228219Y0154225D01*
X0228219Y0154127D02*
X0227313Y0154127D01*
X0227313Y0154028D02*
X0228219Y0154028D01*
X0228219Y0153930D02*
X0227313Y0153930D01*
X0227313Y0153831D02*
X0228219Y0153831D01*
X0228219Y0153733D02*
X0227313Y0153733D01*
X0227313Y0153634D02*
X0228219Y0153634D01*
X0228219Y0153536D02*
X0227313Y0153536D01*
X0227313Y0153437D02*
X0228219Y0153437D01*
X0228219Y0153339D02*
X0227313Y0153339D01*
X0227313Y0153240D02*
X0228219Y0153240D01*
X0228219Y0153142D02*
X0227313Y0153142D01*
X0227313Y0153043D02*
X0228219Y0153043D01*
X0228219Y0152945D02*
X0227313Y0152945D01*
X0227313Y0152846D02*
X0228219Y0152846D01*
X0228219Y0152748D02*
X0227313Y0152748D01*
X0227313Y0152649D02*
X0228219Y0152649D01*
X0228219Y0152551D02*
X0227313Y0152551D01*
X0227313Y0152452D02*
X0228219Y0152452D01*
X0226250Y0152451D02*
X0226250Y0155600D01*
X0225344Y0155600D01*
X0225344Y0152451D01*
X0226250Y0152451D01*
X0226250Y0152452D02*
X0225344Y0152452D01*
X0225344Y0152551D02*
X0226250Y0152551D01*
X0226250Y0152649D02*
X0225344Y0152649D01*
X0225344Y0152748D02*
X0226250Y0152748D01*
X0226250Y0152846D02*
X0225344Y0152846D01*
X0225344Y0152945D02*
X0226250Y0152945D01*
X0226250Y0153043D02*
X0225344Y0153043D01*
X0225344Y0153142D02*
X0226250Y0153142D01*
X0226250Y0153240D02*
X0225344Y0153240D01*
X0225344Y0153339D02*
X0226250Y0153339D01*
X0226250Y0153437D02*
X0225344Y0153437D01*
X0225344Y0153536D02*
X0226250Y0153536D01*
X0226250Y0153634D02*
X0225344Y0153634D01*
X0225344Y0153733D02*
X0226250Y0153733D01*
X0226250Y0153831D02*
X0225344Y0153831D01*
X0225344Y0153930D02*
X0226250Y0153930D01*
X0226250Y0154028D02*
X0225344Y0154028D01*
X0225344Y0154127D02*
X0226250Y0154127D01*
X0226250Y0154225D02*
X0225344Y0154225D01*
X0225344Y0154324D02*
X0226250Y0154324D01*
X0226250Y0154422D02*
X0225344Y0154422D01*
X0225344Y0154521D02*
X0226250Y0154521D01*
X0226250Y0154619D02*
X0225344Y0154619D01*
X0225344Y0154718D02*
X0226250Y0154718D01*
X0226250Y0154816D02*
X0225344Y0154816D01*
X0225344Y0154915D02*
X0226250Y0154915D01*
X0226250Y0155013D02*
X0225344Y0155013D01*
X0225344Y0155112D02*
X0226250Y0155112D01*
X0226250Y0155210D02*
X0225344Y0155210D01*
X0225344Y0155309D02*
X0226250Y0155309D01*
X0226250Y0155407D02*
X0225344Y0155407D01*
X0225344Y0155506D02*
X0226250Y0155506D01*
X0224281Y0155506D02*
X0223376Y0155506D01*
X0223376Y0155600D02*
X0223376Y0152451D01*
X0224281Y0152451D01*
X0224281Y0155600D01*
X0223376Y0155600D01*
X0223376Y0155407D02*
X0224281Y0155407D01*
X0224281Y0155309D02*
X0223376Y0155309D01*
X0223376Y0155210D02*
X0224281Y0155210D01*
X0224281Y0155112D02*
X0223376Y0155112D01*
X0223376Y0155013D02*
X0224281Y0155013D01*
X0224281Y0154915D02*
X0223376Y0154915D01*
X0223376Y0154816D02*
X0224281Y0154816D01*
X0224281Y0154718D02*
X0223376Y0154718D01*
X0223376Y0154619D02*
X0224281Y0154619D01*
X0224281Y0154521D02*
X0223376Y0154521D01*
X0223376Y0154422D02*
X0224281Y0154422D01*
X0224281Y0154324D02*
X0223376Y0154324D01*
X0223376Y0154225D02*
X0224281Y0154225D01*
X0224281Y0154127D02*
X0223376Y0154127D01*
X0223376Y0154028D02*
X0224281Y0154028D01*
X0224281Y0153930D02*
X0223376Y0153930D01*
X0223376Y0153831D02*
X0224281Y0153831D01*
X0224281Y0153733D02*
X0223376Y0153733D01*
X0223376Y0153634D02*
X0224281Y0153634D01*
X0224281Y0153536D02*
X0223376Y0153536D01*
X0223376Y0153437D02*
X0224281Y0153437D01*
X0224281Y0153339D02*
X0223376Y0153339D01*
X0223376Y0153240D02*
X0224281Y0153240D01*
X0224281Y0153142D02*
X0223376Y0153142D01*
X0223376Y0153043D02*
X0224281Y0153043D01*
X0224281Y0152945D02*
X0223376Y0152945D01*
X0223376Y0152846D02*
X0224281Y0152846D01*
X0224281Y0152748D02*
X0223376Y0152748D01*
X0223376Y0152649D02*
X0224281Y0152649D01*
X0224281Y0152551D02*
X0223376Y0152551D01*
X0223376Y0152452D02*
X0224281Y0152452D01*
X0222549Y0151625D02*
X0219400Y0151625D01*
X0219400Y0150720D01*
X0222549Y0150720D01*
X0222549Y0151625D01*
X0222549Y0151566D02*
X0219400Y0151566D01*
X0219400Y0151467D02*
X0222549Y0151467D01*
X0222549Y0151368D02*
X0219400Y0151368D01*
X0219400Y0151270D02*
X0222549Y0151270D01*
X0222549Y0151171D02*
X0219400Y0151171D01*
X0219400Y0151073D02*
X0222549Y0151073D01*
X0222549Y0150974D02*
X0219400Y0150974D01*
X0219400Y0150876D02*
X0222549Y0150876D01*
X0222549Y0150777D02*
X0219400Y0150777D01*
X0231250Y0152451D02*
X0231250Y0155600D01*
X0232156Y0155600D01*
X0232156Y0152451D01*
X0231250Y0152451D01*
X0231250Y0152452D02*
X0232156Y0152452D01*
X0232156Y0152551D02*
X0231250Y0152551D01*
X0231250Y0152649D02*
X0232156Y0152649D01*
X0232156Y0152748D02*
X0231250Y0152748D01*
X0231250Y0152846D02*
X0232156Y0152846D01*
X0232156Y0152945D02*
X0231250Y0152945D01*
X0231250Y0153043D02*
X0232156Y0153043D01*
X0232156Y0153142D02*
X0231250Y0153142D01*
X0231250Y0153240D02*
X0232156Y0153240D01*
X0232156Y0153339D02*
X0231250Y0153339D01*
X0231250Y0153437D02*
X0232156Y0153437D01*
X0232156Y0153536D02*
X0231250Y0153536D01*
X0231250Y0153634D02*
X0232156Y0153634D01*
X0232156Y0153733D02*
X0231250Y0153733D01*
X0231250Y0153831D02*
X0232156Y0153831D01*
X0232156Y0153930D02*
X0231250Y0153930D01*
X0231250Y0154028D02*
X0232156Y0154028D01*
X0232156Y0154127D02*
X0231250Y0154127D01*
X0231250Y0154225D02*
X0232156Y0154225D01*
X0232156Y0154324D02*
X0231250Y0154324D01*
X0231250Y0154422D02*
X0232156Y0154422D01*
X0232156Y0154521D02*
X0231250Y0154521D01*
X0231250Y0154619D02*
X0232156Y0154619D01*
X0232156Y0154718D02*
X0231250Y0154718D01*
X0231250Y0154816D02*
X0232156Y0154816D01*
X0232156Y0154915D02*
X0231250Y0154915D01*
X0231250Y0155013D02*
X0232156Y0155013D01*
X0232156Y0155112D02*
X0231250Y0155112D01*
X0231250Y0155210D02*
X0232156Y0155210D01*
X0232156Y0155309D02*
X0231250Y0155309D01*
X0231250Y0155407D02*
X0232156Y0155407D01*
X0232156Y0155506D02*
X0231250Y0155506D01*
X0233219Y0155506D02*
X0234124Y0155506D01*
X0234124Y0155600D02*
X0233219Y0155600D01*
X0233219Y0152451D01*
X0234124Y0152451D01*
X0234124Y0155600D01*
X0234124Y0155407D02*
X0233219Y0155407D01*
X0233219Y0155309D02*
X0234124Y0155309D01*
X0234124Y0155210D02*
X0233219Y0155210D01*
X0233219Y0155112D02*
X0234124Y0155112D01*
X0234124Y0155013D02*
X0233219Y0155013D01*
X0233219Y0154915D02*
X0234124Y0154915D01*
X0234124Y0154816D02*
X0233219Y0154816D01*
X0233219Y0154718D02*
X0234124Y0154718D01*
X0234124Y0154619D02*
X0233219Y0154619D01*
X0233219Y0154521D02*
X0234124Y0154521D01*
X0234124Y0154422D02*
X0233219Y0154422D01*
X0233219Y0154324D02*
X0234124Y0154324D01*
X0234124Y0154225D02*
X0233219Y0154225D01*
X0233219Y0154127D02*
X0234124Y0154127D01*
X0234124Y0154028D02*
X0233219Y0154028D01*
X0233219Y0153930D02*
X0234124Y0153930D01*
X0234124Y0153831D02*
X0233219Y0153831D01*
X0233219Y0153733D02*
X0234124Y0153733D01*
X0234124Y0153634D02*
X0233219Y0153634D01*
X0233219Y0153536D02*
X0234124Y0153536D01*
X0234124Y0153437D02*
X0233219Y0153437D01*
X0233219Y0153339D02*
X0234124Y0153339D01*
X0234124Y0153240D02*
X0233219Y0153240D01*
X0233219Y0153142D02*
X0234124Y0153142D01*
X0234124Y0153043D02*
X0233219Y0153043D01*
X0233219Y0152945D02*
X0234124Y0152945D01*
X0234124Y0152846D02*
X0233219Y0152846D01*
X0233219Y0152748D02*
X0234124Y0152748D01*
X0234124Y0152649D02*
X0233219Y0152649D01*
X0233219Y0152551D02*
X0234124Y0152551D01*
X0234124Y0152452D02*
X0233219Y0152452D01*
X0233278Y0150778D02*
X0232244Y0150778D01*
X0232244Y0150300D01*
X0232800Y0149744D01*
X0233278Y0149744D01*
X0233278Y0150778D01*
X0233278Y0150777D02*
X0232244Y0150777D01*
X0232244Y0150679D02*
X0233278Y0150679D01*
X0233278Y0150580D02*
X0232244Y0150580D01*
X0232244Y0150482D02*
X0233278Y0150482D01*
X0233278Y0150383D02*
X0232244Y0150383D01*
X0232259Y0150285D02*
X0233278Y0150285D01*
X0233278Y0150186D02*
X0232358Y0150186D01*
X0232456Y0150088D02*
X0233278Y0150088D01*
X0233278Y0149989D02*
X0232555Y0149989D01*
X0232653Y0149891D02*
X0233278Y0149891D01*
X0233278Y0149792D02*
X0232752Y0149792D01*
X0232800Y0148956D02*
X0232244Y0148400D01*
X0232244Y0147200D01*
X0232800Y0146644D01*
X0233278Y0146644D01*
X0233278Y0148956D01*
X0232800Y0148956D01*
X0232750Y0148906D02*
X0233278Y0148906D01*
X0233278Y0148807D02*
X0232651Y0148807D01*
X0232553Y0148709D02*
X0233278Y0148709D01*
X0233278Y0148610D02*
X0232454Y0148610D01*
X0232356Y0148512D02*
X0233278Y0148512D01*
X0233278Y0148413D02*
X0232257Y0148413D01*
X0232244Y0148315D02*
X0233278Y0148315D01*
X0233278Y0148216D02*
X0232244Y0148216D01*
X0232244Y0148118D02*
X0233278Y0148118D01*
X0233278Y0148019D02*
X0232244Y0148019D01*
X0232244Y0147921D02*
X0233278Y0147921D01*
X0233278Y0147822D02*
X0232244Y0147822D01*
X0232244Y0147724D02*
X0233278Y0147724D01*
X0233278Y0147625D02*
X0232244Y0147625D01*
X0232244Y0147527D02*
X0233278Y0147527D01*
X0233278Y0147428D02*
X0232244Y0147428D01*
X0232244Y0147330D02*
X0233278Y0147330D01*
X0233278Y0147231D02*
X0232244Y0147231D01*
X0232312Y0147132D02*
X0233278Y0147132D01*
X0233278Y0147034D02*
X0232410Y0147034D01*
X0232509Y0146935D02*
X0233278Y0146935D01*
X0233278Y0146837D02*
X0232607Y0146837D01*
X0232706Y0146738D02*
X0233278Y0146738D01*
X0233278Y0145856D02*
X0232800Y0145856D01*
X0232244Y0145300D01*
X0232244Y0144100D01*
X0232800Y0143544D01*
X0233278Y0143544D01*
X0233278Y0145856D01*
X0233278Y0145852D02*
X0232796Y0145852D01*
X0232698Y0145753D02*
X0233278Y0145753D01*
X0233278Y0145655D02*
X0232599Y0145655D01*
X0232500Y0145556D02*
X0233278Y0145556D01*
X0233278Y0145458D02*
X0232402Y0145458D01*
X0232303Y0145359D02*
X0233278Y0145359D01*
X0233278Y0145261D02*
X0232244Y0145261D01*
X0232244Y0145162D02*
X0233278Y0145162D01*
X0233278Y0145064D02*
X0232244Y0145064D01*
X0232244Y0144965D02*
X0233278Y0144965D01*
X0233278Y0144867D02*
X0232244Y0144867D01*
X0232244Y0144768D02*
X0233278Y0144768D01*
X0233278Y0144670D02*
X0232244Y0144670D01*
X0232244Y0144571D02*
X0233278Y0144571D01*
X0233278Y0144473D02*
X0232244Y0144473D01*
X0232244Y0144374D02*
X0233278Y0144374D01*
X0233278Y0144276D02*
X0232244Y0144276D01*
X0232244Y0144177D02*
X0233278Y0144177D01*
X0233278Y0144079D02*
X0232266Y0144079D01*
X0232364Y0143980D02*
X0233278Y0143980D01*
X0233278Y0143882D02*
X0232463Y0143882D01*
X0232561Y0143783D02*
X0233278Y0143783D01*
X0233278Y0143685D02*
X0232660Y0143685D01*
X0232758Y0143586D02*
X0233278Y0143586D01*
X0233278Y0142756D02*
X0232800Y0142756D01*
X0232244Y0142200D01*
X0232244Y0141722D01*
X0233278Y0141722D01*
X0233278Y0142756D01*
X0233278Y0142699D02*
X0232744Y0142699D01*
X0232645Y0142601D02*
X0233278Y0142601D01*
X0233278Y0142502D02*
X0232547Y0142502D01*
X0232448Y0142404D02*
X0233278Y0142404D01*
X0233278Y0142305D02*
X0232350Y0142305D01*
X0232251Y0142207D02*
X0233278Y0142207D01*
X0233278Y0142108D02*
X0232244Y0142108D01*
X0232244Y0142010D02*
X0233278Y0142010D01*
X0233278Y0141911D02*
X0232244Y0141911D01*
X0232244Y0141813D02*
X0233278Y0141813D01*
X0234951Y0141780D02*
X0234951Y0140875D01*
X0238100Y0140875D01*
X0238100Y0141780D01*
X0234951Y0141780D01*
X0234951Y0141714D02*
X0238100Y0141714D01*
X0238100Y0141616D02*
X0234951Y0141616D01*
X0234951Y0141517D02*
X0238100Y0141517D01*
X0238100Y0141419D02*
X0234951Y0141419D01*
X0234951Y0141320D02*
X0238100Y0141320D01*
X0238100Y0141222D02*
X0234951Y0141222D01*
X0234951Y0141123D02*
X0238100Y0141123D01*
X0238100Y0141025D02*
X0234951Y0141025D01*
X0234951Y0140926D02*
X0238100Y0140926D01*
X0238100Y0142844D02*
X0234951Y0142844D01*
X0234951Y0143749D01*
X0238100Y0143749D01*
X0238100Y0142844D01*
X0238100Y0142897D02*
X0234951Y0142897D01*
X0234951Y0142995D02*
X0238100Y0142995D01*
X0238100Y0143094D02*
X0234951Y0143094D01*
X0234951Y0143192D02*
X0238100Y0143192D01*
X0238100Y0143291D02*
X0234951Y0143291D01*
X0234951Y0143389D02*
X0238100Y0143389D01*
X0238100Y0143488D02*
X0234951Y0143488D01*
X0234951Y0143586D02*
X0238100Y0143586D01*
X0238100Y0143685D02*
X0234951Y0143685D01*
X0234951Y0144813D02*
X0234951Y0145718D01*
X0238100Y0145718D01*
X0238100Y0144813D01*
X0234951Y0144813D01*
X0234951Y0144867D02*
X0238100Y0144867D01*
X0238100Y0144965D02*
X0234951Y0144965D01*
X0234951Y0145064D02*
X0238100Y0145064D01*
X0238100Y0145162D02*
X0234951Y0145162D01*
X0234951Y0145261D02*
X0238100Y0145261D01*
X0238100Y0145359D02*
X0234951Y0145359D01*
X0234951Y0145458D02*
X0238100Y0145458D01*
X0238100Y0145556D02*
X0234951Y0145556D01*
X0234951Y0145655D02*
X0238100Y0145655D01*
X0238100Y0146782D02*
X0234951Y0146782D01*
X0234951Y0147687D01*
X0238100Y0147687D01*
X0238100Y0146782D01*
X0238100Y0146837D02*
X0234951Y0146837D01*
X0234951Y0146935D02*
X0238100Y0146935D01*
X0238100Y0147034D02*
X0234951Y0147034D01*
X0234951Y0147132D02*
X0238100Y0147132D01*
X0238100Y0147231D02*
X0234951Y0147231D01*
X0234951Y0147330D02*
X0238100Y0147330D01*
X0238100Y0147428D02*
X0234951Y0147428D01*
X0234951Y0147527D02*
X0238100Y0147527D01*
X0238100Y0147625D02*
X0234951Y0147625D01*
X0234951Y0148751D02*
X0234951Y0149656D01*
X0238100Y0149656D01*
X0238100Y0148751D01*
X0234951Y0148751D01*
X0234951Y0148807D02*
X0238100Y0148807D01*
X0238100Y0148906D02*
X0234951Y0148906D01*
X0234951Y0149004D02*
X0238100Y0149004D01*
X0238100Y0149103D02*
X0234951Y0149103D01*
X0234951Y0149201D02*
X0238100Y0149201D01*
X0238100Y0149300D02*
X0234951Y0149300D01*
X0234951Y0149398D02*
X0238100Y0149398D01*
X0238100Y0149497D02*
X0234951Y0149497D01*
X0234951Y0149595D02*
X0238100Y0149595D01*
X0238100Y0150720D02*
X0238100Y0151625D01*
X0234951Y0151625D01*
X0234951Y0150720D01*
X0238100Y0150720D01*
X0238100Y0150777D02*
X0234951Y0150777D01*
X0234951Y0150876D02*
X0238100Y0150876D01*
X0238100Y0150974D02*
X0234951Y0150974D01*
X0234951Y0151073D02*
X0238100Y0151073D01*
X0238100Y0151171D02*
X0234951Y0151171D01*
X0234951Y0151270D02*
X0238100Y0151270D01*
X0238100Y0151368D02*
X0234951Y0151368D01*
X0234951Y0151467D02*
X0238100Y0151467D01*
X0238100Y0151566D02*
X0234951Y0151566D01*
X0234124Y0140049D02*
X0233219Y0140049D01*
X0233219Y0136900D01*
X0234124Y0136900D01*
X0234124Y0140049D01*
X0234124Y0140040D02*
X0233219Y0140040D01*
X0233219Y0139941D02*
X0234124Y0139941D01*
X0234124Y0139843D02*
X0233219Y0139843D01*
X0233219Y0139744D02*
X0234124Y0139744D01*
X0234124Y0139646D02*
X0233219Y0139646D01*
X0233219Y0139547D02*
X0234124Y0139547D01*
X0234124Y0139449D02*
X0233219Y0139449D01*
X0233219Y0139350D02*
X0234124Y0139350D01*
X0234124Y0139252D02*
X0233219Y0139252D01*
X0233219Y0139153D02*
X0234124Y0139153D01*
X0234124Y0139055D02*
X0233219Y0139055D01*
X0233219Y0138956D02*
X0234124Y0138956D01*
X0234124Y0138858D02*
X0233219Y0138858D01*
X0233219Y0138759D02*
X0234124Y0138759D01*
X0234124Y0138661D02*
X0233219Y0138661D01*
X0233219Y0138562D02*
X0234124Y0138562D01*
X0234124Y0138463D02*
X0233219Y0138463D01*
X0233219Y0138365D02*
X0234124Y0138365D01*
X0234124Y0138266D02*
X0233219Y0138266D01*
X0233219Y0138168D02*
X0234124Y0138168D01*
X0234124Y0138069D02*
X0233219Y0138069D01*
X0233219Y0137971D02*
X0234124Y0137971D01*
X0234124Y0137872D02*
X0233219Y0137872D01*
X0233219Y0137774D02*
X0234124Y0137774D01*
X0234124Y0137675D02*
X0233219Y0137675D01*
X0233219Y0137577D02*
X0234124Y0137577D01*
X0234124Y0137478D02*
X0233219Y0137478D01*
X0233219Y0137380D02*
X0234124Y0137380D01*
X0234124Y0137281D02*
X0233219Y0137281D01*
X0233219Y0137183D02*
X0234124Y0137183D01*
X0234124Y0137084D02*
X0233219Y0137084D01*
X0233219Y0136986D02*
X0234124Y0136986D01*
X0232156Y0136986D02*
X0231250Y0136986D01*
X0231250Y0136900D02*
X0231250Y0140049D01*
X0232156Y0140049D01*
X0232156Y0136900D01*
X0231250Y0136900D01*
X0231250Y0137084D02*
X0232156Y0137084D01*
X0232156Y0137183D02*
X0231250Y0137183D01*
X0231250Y0137281D02*
X0232156Y0137281D01*
X0232156Y0137380D02*
X0231250Y0137380D01*
X0231250Y0137478D02*
X0232156Y0137478D01*
X0232156Y0137577D02*
X0231250Y0137577D01*
X0231250Y0137675D02*
X0232156Y0137675D01*
X0232156Y0137774D02*
X0231250Y0137774D01*
X0231250Y0137872D02*
X0232156Y0137872D01*
X0232156Y0137971D02*
X0231250Y0137971D01*
X0231250Y0138069D02*
X0232156Y0138069D01*
X0232156Y0138168D02*
X0231250Y0138168D01*
X0231250Y0138266D02*
X0232156Y0138266D01*
X0232156Y0138365D02*
X0231250Y0138365D01*
X0231250Y0138463D02*
X0232156Y0138463D01*
X0232156Y0138562D02*
X0231250Y0138562D01*
X0231250Y0138661D02*
X0232156Y0138661D01*
X0232156Y0138759D02*
X0231250Y0138759D01*
X0231250Y0138858D02*
X0232156Y0138858D01*
X0232156Y0138956D02*
X0231250Y0138956D01*
X0231250Y0139055D02*
X0232156Y0139055D01*
X0232156Y0139153D02*
X0231250Y0139153D01*
X0231250Y0139252D02*
X0232156Y0139252D01*
X0232156Y0139350D02*
X0231250Y0139350D01*
X0231250Y0139449D02*
X0232156Y0139449D01*
X0232156Y0139547D02*
X0231250Y0139547D01*
X0231250Y0139646D02*
X0232156Y0139646D01*
X0232156Y0139744D02*
X0231250Y0139744D01*
X0231250Y0139843D02*
X0232156Y0139843D01*
X0232156Y0139941D02*
X0231250Y0139941D01*
X0231250Y0140040D02*
X0232156Y0140040D01*
D25*
X0240516Y0118832D03*
X0240516Y0116273D03*
X0240516Y0113714D03*
X0240516Y0111155D03*
X0240516Y0108595D03*
X0240516Y0106036D03*
X0240516Y0103477D03*
X0240516Y0100918D03*
X0217484Y0100918D03*
X0217484Y0103477D03*
X0217484Y0106036D03*
X0217484Y0108595D03*
X0217484Y0111155D03*
X0217484Y0113714D03*
X0217484Y0116273D03*
X0217484Y0118832D03*
D26*
X0210693Y0126349D03*
X0210693Y0128908D03*
X0210693Y0131467D03*
X0210693Y0134026D03*
X0197307Y0134026D03*
X0197307Y0131467D03*
X0197307Y0128908D03*
X0197307Y0126349D03*
D27*
X0195582Y0118131D03*
X0195582Y0112619D03*
X0202668Y0112619D03*
X0202668Y0118131D03*
D28*
X0202668Y0115375D03*
D29*
X0134287Y0091648D03*
X0131137Y0091648D03*
X0127988Y0091648D03*
X0124838Y0091648D03*
X0124838Y0086727D03*
X0127988Y0086727D03*
X0131137Y0086727D03*
X0134287Y0086727D03*
D30*
X0157962Y0068031D03*
X0157962Y0059469D03*
X0176663Y0059469D03*
X0176663Y0068031D03*
D31*
X0176663Y0065177D03*
X0176663Y0062323D03*
X0157962Y0062323D03*
X0157962Y0065177D03*
D32*
X0187187Y0062062D03*
X0187187Y0072063D03*
X0187187Y0082063D03*
X0187187Y0092062D03*
X0224187Y0092062D03*
X0224187Y0082063D03*
X0224187Y0072063D03*
X0224187Y0062062D03*
D33*
X0147562Y0060812D03*
X0147562Y0065813D03*
X0147562Y0070813D03*
X0147562Y0075813D03*
X0131813Y0075813D03*
X0131813Y0070813D03*
X0131813Y0065813D03*
X0131813Y0060812D03*
D34*
X0269438Y0111267D03*
X0274438Y0111267D03*
X0279438Y0111267D03*
X0279438Y0136858D03*
X0269438Y0136858D03*
M02*
