G75*
%MOIN*%
%OFA0B0*%
%FSLAX25Y25*%
%IPPOS*%
%LPD*%
%AMOC8*
5,1,8,0,0,1.08239X$1,22.5*
%
%ADD10R,0.04331X0.03937*%
%ADD11R,0.22047X0.10630*%
%ADD12R,0.03937X0.04331*%
%ADD13R,0.02362X0.02598*%
%ADD14R,0.12598X0.07087*%
%ADD15R,0.03000X0.07700*%
%ADD16R,0.10984X0.04685*%
%ADD17R,0.02362X0.07087*%
%ADD18R,0.04331X0.14567*%
%ADD19R,0.02756X0.00984*%
%ADD20R,0.02402X0.08661*%
%ADD21R,0.24409X0.22835*%
%ADD22R,0.11811X0.06299*%
D10*
X0019654Y0047200D03*
X0026346Y0047200D03*
X0033054Y0047200D03*
X0039746Y0047200D03*
X0076654Y0079400D03*
X0083346Y0079400D03*
X0092054Y0079400D03*
X0098746Y0079400D03*
X0136000Y0097054D03*
X0136000Y0103746D03*
X0136000Y0109054D03*
X0136000Y0115746D03*
D11*
X0073400Y0112133D03*
X0073400Y0091267D03*
D12*
X0076854Y0067600D03*
X0083546Y0067600D03*
X0092054Y0067400D03*
X0098746Y0067400D03*
X0103254Y0047600D03*
X0109946Y0047600D03*
X0117254Y0047600D03*
X0123946Y0047600D03*
X0131254Y0047800D03*
X0137946Y0047800D03*
X0137946Y0039400D03*
X0131254Y0039400D03*
X0124146Y0039400D03*
X0117454Y0039400D03*
D13*
X0115734Y0110000D03*
X0107466Y0110000D03*
D14*
X0095200Y0112624D03*
X0095200Y0090576D03*
D15*
X0009800Y0010000D03*
X0019800Y0010000D03*
X0019800Y0038000D03*
X0009800Y0038000D03*
D16*
X0118292Y0028800D03*
X0137308Y0018800D03*
X0118292Y0008800D03*
D17*
X0063500Y0035743D03*
X0058500Y0035743D03*
X0053500Y0035743D03*
X0048500Y0035743D03*
X0048500Y0078657D03*
X0053500Y0078657D03*
X0058500Y0078657D03*
X0063500Y0078657D03*
D18*
X0111494Y0095000D03*
X0123306Y0095000D03*
D19*
X0126842Y0109047D03*
X0126842Y0111016D03*
X0126842Y0112984D03*
X0126842Y0114953D03*
X0119558Y0114953D03*
X0119558Y0112984D03*
X0119558Y0111016D03*
X0119558Y0109047D03*
D20*
X0123200Y0112000D03*
D21*
X0018127Y0105300D03*
D22*
X0046394Y0096304D03*
X0046394Y0114296D03*
M02*
